HIERARCHY
ROOT Hips
{
	OFFSET 0.000000 121.760803 0.000000
	CHANNELS 6 Xposition Yposition Zposition Xrotation Yrotation Zrotation 
	JOINT Spine
	{
		OFFSET 0.072000 7.257294 -0.789700
		CHANNELS 3 Xrotation Yrotation Zrotation
		JOINT Spine1
		{
			OFFSET 0.000000 12.508769 -0.658067
			CHANNELS 3 Xrotation Yrotation Zrotation
			JOINT Spine1_split
			{
				OFFSET 0.000000 12.508769 -0.658067
				CHANNELS 3 Xrotation Yrotation Zrotation
				JOINT Spine2
				{
					OFFSET 0.000000 12.508769 -0.658067
					CHANNELS 3 Xrotation Yrotation Zrotation
					JOINT Neck
					{
						OFFSET 0.000000 14.033295 7.520400
						CHANNELS 3 Xrotation Yrotation Zrotation
						JOINT Head
						{
							OFFSET 0.000000 8.198502 5.703100
							CHANNELS 3 Xrotation Yrotation Zrotation
							JOINT HeadTop_End
							{
								OFFSET 0.000000 17.760803 13.332701
								CHANNELS 3 Xrotation Yrotation Zrotation
								End Site
								{
									OFFSET 0.000000 0.000000 0.000000
								}
							}
						}
					}
					JOINT LeftShoulder
					{
						OFFSET 6.292450 5.785301 -0.669000
						CHANNELS 3 Xrotation Yrotation Zrotation
						JOINT LeftShoulder_split
						{
							OFFSET 6.292450 5.785301 -0.669000
							CHANNELS 3 Xrotation Yrotation Zrotation
							JOINT LeftArm
							{
								OFFSET 13.907140 -6.093903 1.965100
								CHANNELS 3 Xrotation Yrotation Zrotation
								JOINT LeftForeArm
								{
									OFFSET 34.140198 0.000000 0.000000
									CHANNELS 3 Xrotation Yrotation Zrotation
									JOINT LeftHand
									{
										OFFSET 40.960209 0.000000 0.000000
										CHANNELS 3 Xrotation Yrotation Zrotation
										JOINT LeftHandThumb1
										{
											OFFSET 10.006996 -7.170425 9.573125
											CHANNELS 3 Xrotation Yrotation Zrotation
											JOINT LeftHandThumb2
											{
												OFFSET 1.835007 -1.059448 1.059443
												CHANNELS 3 Xrotation Yrotation Zrotation
												JOINT LeftHandThumb3
												{
													OFFSET 2.112267 -1.219513 1.219518
													CHANNELS 3 Xrotation Yrotation Zrotation
													JOINT LeftHandThumb4
													{
														OFFSET 4.843811 -2.796570 2.796576
														CHANNELS 3 Xrotation Yrotation Zrotation
														End Site
														{
															OFFSET 0.000000 0.000000 0.000000
														}
													}
												}
											}
										}
										JOINT LeftHandIndex1
										{
											OFFSET 18.389847 -0.922348 4.596882
											CHANNELS 3 Xrotation Yrotation Zrotation
											JOINT LeftHandIndex2
											{
												OFFSET 4.711273 0.000000 0.000000
												CHANNELS 3 Xrotation Yrotation Zrotation
												JOINT LeftHandIndex3
												{
													OFFSET 2.886131 0.000000 0.000000
													CHANNELS 3 Xrotation Yrotation Zrotation
													JOINT LeftHandIndex4
													{
														OFFSET 6.145912 0.000000 0.000000
														CHANNELS 3 Xrotation Yrotation Zrotation
														End Site
														{
															OFFSET 0.000000 0.000000 0.000000
														}
													}
												}
											}
										}
										JOINT LeftHandMiddle1
										{
											OFFSET 18.013008 0.000000 0.000000
											CHANNELS 3 Xrotation Yrotation Zrotation
											JOINT LeftHandMiddle2
											{
												OFFSET 4.946693 0.000000 0.000000
												CHANNELS 3 Xrotation Yrotation Zrotation
												JOINT LeftHandMiddle3
												{
													OFFSET 3.342232 0.000000 0.000000
													CHANNELS 3 Xrotation Yrotation Zrotation
													JOINT LeftHandMiddle4
													{
														OFFSET 4.461754 0.000000 0.000000
														CHANNELS 3 Xrotation Yrotation Zrotation
														End Site
														{
															OFFSET 0.000000 0.000000 0.000000
														}
													}
												}
											}
										}
										JOINT LeftHandRing1
										{
											OFFSET 15.849892 -0.102921 -4.126150
											CHANNELS 3 Xrotation Yrotation Zrotation
											JOINT LeftHandRing2
											{
												OFFSET 3.527054 0.000000 0.000000
												CHANNELS 3 Xrotation Yrotation Zrotation
												JOINT LeftHandRing3
												{
													OFFSET 2.961098 0.000000 0.000000
													CHANNELS 3 Xrotation Yrotation Zrotation
													JOINT LeftHandRing4
													{
														OFFSET 4.927200 0.000000 0.000000
														CHANNELS 3 Xrotation Yrotation Zrotation
														End Site
														{
															OFFSET 0.000000 0.000000 0.000000
														}
													}
												}
											}
										}
										JOINT LeftHandPinky1
										{
											OFFSET 12.791824 -0.832031 -6.799156
											CHANNELS 3 Xrotation Yrotation Zrotation
											JOINT LeftHandPinky2
											{
												OFFSET 3.327133 0.000000 0.000000
												CHANNELS 3 Xrotation Yrotation Zrotation
												JOINT LeftHandPinky3
												{
													OFFSET 3.014900 0.000000 0.000000
													CHANNELS 3 Xrotation Yrotation Zrotation
													JOINT LeftHandPinky4
													{
														OFFSET 5.847786 0.000000 0.000000
														CHANNELS 3 Xrotation Yrotation Zrotation
														End Site
														{
															OFFSET 0.000000 0.000000 0.000000
														}
													}
												}
											}
										}
									}
								}
							}
						}
					}
					JOINT RightShoulder
					{
						OFFSET -6.292450 5.785301 -0.669000
						CHANNELS 3 Xrotation Yrotation Zrotation
						JOINT RightShoulder_split
						{
							OFFSET -6.292450 5.785301 -0.669000
							CHANNELS 3 Xrotation Yrotation Zrotation
							JOINT RightArm
							{
								OFFSET -13.907140 -6.093903 1.965100
								CHANNELS 3 Xrotation Yrotation Zrotation
								JOINT RightForeArm
								{
									OFFSET -34.140198 0.000000 0.000000
									CHANNELS 3 Xrotation Yrotation Zrotation
									JOINT RightHand
									{
										OFFSET -40.960209 0.000000 0.000000
										CHANNELS 3 Xrotation Yrotation Zrotation
										JOINT RightHandThumb1
										{
											OFFSET -10.007050 -7.170456 9.573117
											CHANNELS 3 Xrotation Yrotation Zrotation
											JOINT RightHandThumb2
											{
												OFFSET -1.835007 -1.059448 1.059443
												CHANNELS 3 Xrotation Yrotation Zrotation
												JOINT RightHandThumb3
												{
													OFFSET -2.112267 -1.219513 1.219518
													CHANNELS 3 Xrotation Yrotation Zrotation
													JOINT RightHandThumb4
													{
														OFFSET -4.843834 -2.796585 2.796590
														CHANNELS 3 Xrotation Yrotation Zrotation
														End Site
														{
															OFFSET 0.000000 0.000000 0.000000
														}
													}
												}
											}
										}
										JOINT RightHandIndex1
										{
											OFFSET -18.389870 -0.922424 4.596786
											CHANNELS 3 Xrotation Yrotation Zrotation
											JOINT RightHandIndex2
											{
												OFFSET -4.711273 0.000000 0.000000
												CHANNELS 3 Xrotation Yrotation Zrotation
												JOINT RightHandIndex3
												{
													OFFSET -2.886131 0.000000 0.000000
													CHANNELS 3 Xrotation Yrotation Zrotation
													JOINT RightHandIndex4
													{
														OFFSET -6.145920 0.000000 0.000000
														CHANNELS 3 Xrotation Yrotation Zrotation
														End Site
														{
															OFFSET 0.000000 0.000000 0.000000
														}
													}
												}
											}
										}
										JOINT RightHandMiddle1
										{
											OFFSET -18.013008 0.000000 0.000000
											CHANNELS 3 Xrotation Yrotation Zrotation
											JOINT RightHandMiddle2
											{
												OFFSET -4.946693 0.000000 0.000000
												CHANNELS 3 Xrotation Yrotation Zrotation
												JOINT RightHandMiddle3
												{
													OFFSET -3.342232 0.000000 0.000000
													CHANNELS 3 Xrotation Yrotation Zrotation
													JOINT RightHandMiddle4
													{
														OFFSET -4.461754 0.000000 0.000000
														CHANNELS 3 Xrotation Yrotation Zrotation
														End Site
														{
															OFFSET 0.000000 0.000000 0.000000
														}
													}
												}
											}
										}
										JOINT RightHandRing1
										{
											OFFSET -15.849876 -0.102936 -4.126237
											CHANNELS 3 Xrotation Yrotation Zrotation
											JOINT RightHandRing2
											{
												OFFSET -3.527054 0.000000 0.000000
												CHANNELS 3 Xrotation Yrotation Zrotation
												JOINT RightHandRing3
												{
													OFFSET -2.961098 0.000000 0.000000
													CHANNELS 3 Xrotation Yrotation Zrotation
													JOINT RightHandRing4
													{
														OFFSET -4.927200 0.000000 0.000000
														CHANNELS 3 Xrotation Yrotation Zrotation
														End Site
														{
															OFFSET 0.000000 0.000000 0.000000
														}
													}
												}
											}
										}
										JOINT RightHandPinky1
										{
											OFFSET -12.791786 -0.832077 -6.799222
											CHANNELS 3 Xrotation Yrotation Zrotation
											JOINT RightHandPinky2
											{
												OFFSET -3.327133 0.000000 0.000000
												CHANNELS 3 Xrotation Yrotation Zrotation
												JOINT RightHandPinky3
												{
													OFFSET -3.014900 0.000000 0.000000
													CHANNELS 3 Xrotation Yrotation Zrotation
													JOINT RightHandPinky4
													{
														OFFSET -5.847786 0.000000 0.000000
														CHANNELS 3 Xrotation Yrotation Zrotation
														End Site
														{
															OFFSET 0.000000 0.000000 0.000000
														}
													}
												}
											}
										}
									}
								}
							}
						}
					}
				}
			}
		}
	}
	JOINT LeftUpLeg
	{
		OFFSET 13.026900 -6.336304 -1.092800
		CHANNELS 3 Xrotation Yrotation Zrotation
		JOINT LeftLeg
		{
			OFFSET 0.524474 -46.096886 9.782700
			CHANNELS 3 Xrotation Yrotation Zrotation
			JOINT LeftFoot
			{
				OFFSET -0.524474 -53.427422 -12.948200
				CHANNELS 3 Xrotation Yrotation Zrotation
				JOINT LeftToeBase
				{
					OFFSET 0.192200 -14.009700 16.364100
					CHANNELS 3 Xrotation Yrotation Zrotation
					JOINT LeftToe_End
					{
						OFFSET -1.784700 -0.561700 9.474800
						CHANNELS 3 Xrotation Yrotation Zrotation
						End Site
						{
							OFFSET 0.000000 0.000000 0.000000
						}
					}
				}
			}
		}
	}
	JOINT RightUpLeg
	{
		OFFSET -12.883000 -6.336304 -1.092800
		CHANNELS 3 Xrotation Yrotation Zrotation
		JOINT RightLeg
		{
			OFFSET -0.524587 -46.096825 9.782800
			CHANNELS 3 Xrotation Yrotation Zrotation
			JOINT RightFoot
			{
				OFFSET 0.524587 -53.427383 -12.948300
				CHANNELS 3 Xrotation Yrotation Zrotation
				JOINT RightToeBase
				{
					OFFSET -0.192200 -14.009700 16.364100
					CHANNELS 3 Xrotation Yrotation Zrotation
					JOINT RightToe_End
					{
						OFFSET 1.784700 -0.561700 9.474800
						CHANNELS 3 Xrotation Yrotation Zrotation
						End Site
						{
							OFFSET 0.000000 0.000000 0.000000
						}
					}
				}
			}
		}
	}
}
MOTION
Frames: 5
Frame Time: 0.016667
15.621506 110.359550 -1.194200 4.159043 -46.542668 3.326333 10.007629 -5.729952 2.225705 3.056896 -1.359248 -0.696758 0.000000 0.000000 0.000000 -8.919070 -4.431370 -1.692197 -8.566929 -5.142930 -4.413994 10.444449 -20.693643 6.191012 -0.000000 -0.000000 0.000000 -0.955895 -3.915911 -2.538331 0.000000 0.000000 0.000000 13.282569 6.823605 -62.263622 -0.021055 -42.236882 -0.010389 -13.882429 -0.489249 0.693284 10.625203 -8.591990 14.272397 -0.294838 14.668203 -7.134994 3.583865 12.313818 3.409802 -0.000000 0.000000 -0.000001 1.031654 -1.592168 -15.118837 -0.015770 -1.091859 -24.286192 -0.057110 -0.568081 -12.300534 -0.000001 0.000001 0.000000 1.615791 -0.182620 -33.849270 -0.338688 -1.382258 -28.184987 -0.280271 -1.320624 -26.616197 -0.000002 0.000004 -0.000001 -0.356912 -2.845880 -41.642943 -0.398110 -1.519199 -29.911864 -0.345608 -1.655575 -31.556324 -0.000001 -0.000002 0.000002 0.340444 -1.216956 -35.934093 -0.410232 -1.748666 -33.792525 -0.895876 -1.696721 -36.260914 -0.000002 0.000001 -0.000001 -0.771036 0.311199 0.884125 0.000000 0.000000 0.000000 3.113840 10.823056 70.823857 0.587856 47.471007 -0.255445 14.368633 15.131241 2.773477 8.265279 7.734432 -18.880813 5.407327 -20.572682 9.835186 1.742517 -3.611573 0.678906 -0.000002 0.000001 0.000001 0.428042 3.999535 18.226189 -0.076240 1.217078 27.275409 -0.057332 0.568960 12.320490 0.000000 0.000001 0.000001 -5.761806 0.366105 35.692789 -0.334665 1.374769 28.018554 -0.284289 1.328633 26.790396 -0.000000 0.000002 0.000000 -11.821787 -3.411380 42.352459 -0.510545 1.699982 33.914314 -0.344150 1.653136 31.504043 0.000002 -0.000002 -0.000001 -5.981494 1.104414 36.964502 -0.585428 1.985542 39.176158 -0.896070 1.696970 36.267075 -0.000000 0.000001 -0.000001 -23.621441 14.650399 8.742406 34.873655 23.505737 3.285380 -7.763905 21.096568 -12.934164 -2.951708 -2.232088 -2.573873 -0.000000 0.000000 -0.000000 -27.544806 -37.829126 -24.310564 33.624693 -12.400835 -2.345887 -11.379934 -6.909437 13.073412 -4.804257 2.347580 2.814572 -0.000000 -0.000002 -0.000000 
15.353676 110.370277 -1.487658 3.942411 -48.257650 3.469706 9.929201 -5.758315 2.141361 2.967047 -1.211544 -0.652809 0.000000 0.000000 0.000000 -9.020276 -4.366687 -1.601919 -8.544198 -4.716537 -4.541435 10.608238 -19.712419 5.755015 0.000000 0.000000 0.000000 -0.878238 -4.226527 -2.233009 0.000000 0.000000 0.000000 13.531508 6.780611 -62.153028 -0.020251 -42.480621 -0.009962 -13.978590 -1.700590 0.681721 10.610730 -8.609796 14.293143 -0.357689 14.631829 -7.082083 3.544714 12.122232 3.317803 0.000003 -0.000002 0.000004 1.074740 -1.682909 -15.031757 -0.013504 -1.086863 -24.167993 -0.056461 -0.565036 -12.233731 -0.000002 -0.000003 -0.000001 1.556049 -0.222464 -33.860301 -0.339059 -1.382948 -28.200485 -0.273214 -1.306442 -26.308654 0.000000 0.000001 -0.000000 -0.383721 -2.808696 -41.684252 -0.402819 -1.527367 -30.088745 -0.346129 -1.656459 -31.574209 0.000002 -0.000000 0.000000 0.287491 -1.145997 -35.957200 -0.410967 -1.749766 -33.816711 -0.896297 -1.697327 -36.275507 -0.000001 0.000000 0.000000 -0.846759 0.820773 0.916899 0.000000 0.000000 0.000000 2.989866 9.871421 70.799542 0.512293 47.191068 -0.227971 14.622750 15.064745 2.863378 8.265283 7.734434 -18.880808 5.407326 -20.572682 9.835181 1.742516 -3.611574 0.678911 -0.000002 -0.000001 -0.000000 0.423798 3.988748 18.092828 -0.070893 1.206687 27.024432 -0.057051 0.567900 12.297332 -0.000000 0.000003 -0.000001 -5.693483 0.419502 35.471331 -0.331013 1.367864 27.864938 -0.284023 1.328033 26.778315 0.000001 0.000002 -0.000001 -11.722676 -3.292671 42.202568 -0.507889 1.695974 33.824340 -0.342046 1.649844 31.433395 0.000000 -0.000000 0.000001 -5.917760 1.153306 36.846562 -0.580055 1.978850 39.019211 -0.894912 1.695446 36.227487 -0.000002 -0.000001 -0.000000 -23.003551 14.973810 8.976396 34.869745 24.473801 3.239835 -7.738053 21.492293 -13.571020 -2.615609 -1.916447 -2.884488 -0.000000 -0.000001 0.000000 -27.814287 -37.559313 -24.617308 33.638951 -12.142114 -2.331836 -10.747117 -6.717669 12.862459 -5.415911 2.348695 2.459464 -0.000000 -0.000000 0.000000 
15.077144 110.328491 -1.846367 3.768434 -49.816770 3.513309 9.860198 -5.714876 2.087906 2.895061 -1.071958 -0.562725 0.000000 0.000000 0.000000 -9.100043 -4.316075 -1.464393 -8.530110 -4.413666 -4.597617 10.720723 -18.797791 5.274396 -0.000000 0.000000 0.000000 -0.800621 -4.500677 -1.933182 0.000000 0.000000 0.000000 13.652200 6.640073 -62.119628 -0.019436 -42.599804 -0.009518 -13.882670 -2.727305 0.797314 10.581102 -8.637577 14.338661 -0.414987 14.605902 -7.028256 3.471654 11.765848 3.146827 -0.000000 0.000000 -0.000001 1.114342 -1.838930 -14.860079 -0.009403 -1.077737 -23.952755 -0.055250 -0.559475 -12.112050 -0.000002 -0.000002 -0.000001 1.447518 -0.296458 -33.824555 -0.338971 -1.382828 -28.197581 -0.261205 -1.281851 -25.776627 0.000001 0.000001 0.000001 -0.428757 -2.746224 -41.695371 -0.407285 -1.535077 -30.256932 -0.345839 -1.656021 -31.565344 -0.000002 -0.000004 0.000003 0.203713 -1.028226 -35.966226 -0.410834 -1.749599 -33.813091 -0.895464 -1.696214 -36.246974 0.000001 0.000003 -0.000000 -0.922055 1.266271 0.964826 0.000000 0.000000 0.000000 2.893476 8.881781 70.701576 0.416270 46.895830 -0.192442 14.871111 14.853416 2.950795 8.265279 7.734442 -18.880811 5.407325 -20.572682 9.835182 1.742514 -3.611571 0.678909 -0.000000 -0.000001 0.000001 0.417022 3.978104 17.908613 -0.063687 1.192405 26.680693 -0.056767 0.566452 12.264616 0.000001 -0.000005 0.000001 -5.592593 0.494505 35.169068 -0.326010 1.358344 27.654883 -0.283542 1.327117 26.757611 -0.000003 0.000001 0.000000 -11.569884 -3.123224 41.996094 -0.504108 1.690306 33.696226 -0.339216 1.645122 31.333360 0.000005 -0.000002 0.000001 -5.821088 1.217439 36.684885 -0.572475 1.969463 38.798224 -0.893272 1.693197 36.170257 -0.000002 -0.000001 -0.000000 -22.957492 15.193308 9.500292 35.484882 25.605143 3.218801 -7.484344 21.362965 -13.901599 -2.120274 -1.451133 -3.341930 -0.000000 0.000000 0.000000 -28.076012 -37.306599 -24.514208 33.947369 -11.459866 -2.300915 -11.128203 -6.096995 12.261891 -5.415908 2.348574 2.459458 0.000000 -0.000002 0.000000 
14.802992 110.250389 -2.264278 3.611806 -51.207608 3.388899 9.804658 -5.588991 2.106532 2.839596 -0.944629 -0.432630 0.000000 0.000000 0.000000 -9.159908 -4.281933 -1.286580 -8.508167 -4.235823 -4.578832 10.792601 -17.958410 4.764732 -0.000000 -0.000000 -0.000000 -0.726153 -4.749503 -1.633529 0.000000 0.000000 0.000000 13.608969 6.402161 -62.096658 -0.018521 -42.554046 -0.009066 -13.603443 -3.571054 1.026157 10.535354 -8.677439 14.409850 -0.467900 14.589214 -6.973096 3.362493 11.235073 2.892909 -0.000001 0.000002 -0.000007 1.151726 -2.065169 -14.597897 -0.003382 -1.063931 -23.629345 -0.053465 -0.551159 -11.929760 -0.000000 0.000002 -0.000001 1.286368 -0.405985 -33.745035 -0.338501 -1.381882 -28.176907 -0.243940 -1.245392 -24.993353 0.000001 0.000001 -0.000002 -0.495282 -2.655287 -41.684105 -0.411504 -1.542241 -30.413309 -0.344805 -1.654295 -31.528334 0.000001 -0.000000 -0.000000 0.084675 -0.856777 -35.964522 -0.409945 -1.748212 -33.782491 -0.893437 -1.693408 -36.175602 -0.000000 -0.000000 0.000000 -0.995144 1.645284 1.031887 0.000000 0.000000 0.000000 2.815508 7.867700 70.540083 0.304919 46.539485 -0.149976 15.123883 14.466175 3.017647 8.265275 7.734437 -18.880805 5.407321 -20.572682 9.835179 1.742516 -3.611573 0.678906 0.000000 -0.000001 0.000002 0.408405 3.965413 17.675070 -0.054641 1.174340 26.246971 -0.056327 0.564492 12.221584 -0.000001 -0.000002 -0.000002 -5.466616 0.586058 34.785682 -0.319737 1.346278 27.387891 -0.282827 1.325652 26.725632 -0.000001 -0.000000 0.000000 -11.377715 -2.913356 41.731073 -0.499264 1.683025 33.531427 -0.335444 1.638893 31.201301 0.000002 0.000001 -0.000001 -5.699275 1.294655 36.479221 -0.562732 1.957346 38.514207 -0.891076 1.690162 36.093240 -0.000001 -0.000001 0.000003 -23.513123 15.212909 10.504102 36.804597 26.435388 3.175735 -6.270128 20.854111 -14.895594 -1.518846 -0.885961 -3.896995 -0.000000 -0.000000 0.000000 -28.085098 -36.993957 -24.044185 34.255526 -10.972947 -2.280280 -11.499692 -5.648496 11.720552 -5.415904 2.348522 2.459470 0.000000 -0.000000 0.000000 
14.522524 110.179886 -2.738446 3.437429 -52.446707 3.130802 9.756437 -5.380736 2.143871 2.798245 -0.834736 -0.276279 0.000000 0.000000 0.000000 -9.202964 -4.266252 -1.083140 -8.468452 -4.171480 -4.485397 10.844089 -17.193251 4.240398 0.000000 0.000000 -0.000000 -0.657695 -4.987837 -1.334225 0.000000 0.000000 0.000000 13.409553 6.067845 -62.089944 -0.017613 -42.345397 -0.008656 -13.179460 -4.211443 1.364349 10.473768 -8.730103 14.505792 -0.517508 14.580301 -6.916673 3.218456 10.537822 2.560496 0.000000 -0.000001 0.000001 1.189035 -2.359512 -14.246538 0.004616 -1.045477 -23.195719 -0.051163 -0.540098 -11.686817 -0.000001 0.000001 -0.000001 1.074340 -0.548447 -33.623577 -0.337522 -1.380119 -28.137412 -0.221848 -1.196872 -23.957244 -0.000003 -0.000002 -0.000001 -0.584204 -2.535087 -41.655032 -0.415329 -1.548789 -30.555210 -0.342774 -1.651057 -31.459336 0.000001 0.000001 0.000001 -0.070441 -0.629955 -35.953822 -0.408149 -1.745516 -33.723396 -0.890104 -1.688864 -36.059222 -0.000001 -0.000001 -0.000001 -1.064623 1.958807 1.120593 0.000000 0.000000 0.000000 2.745217 6.847597 70.332261 0.188348 46.077966 -0.103767 15.391630 13.945532 3.026135 8.265278 7.734434 -18.880808 5.407328 -20.572683 9.835182 1.742515 -3.611573 0.678906 -0.000002 0.000001 0.000001 0.398344 3.951087 17.395804 -0.044176 1.152776 25.730648 -0.055797 0.562048 12.167967 -0.000000 0.000001 -0.000000 -5.320813 0.689655 34.326004 -0.312248 1.331723 27.066986 -0.281698 1.323493 26.679296 -0.000001 0.000001 0.000000 -11.154449 -2.671745 41.408848 -0.493433 1.674168 33.331610 -0.330702 1.631070 31.035908 -0.000000 -0.000001 0.000002 -5.557189 1.381522 36.232002 -0.551023 1.942500 38.169696 -0.888267 1.686290 35.994786 -0.000002 0.000000 0.000000 -24.207324 15.153593 11.686752 38.219679 26.930271 3.086870 -4.950792 20.099469 -15.727378 -0.864335 -0.270640 -4.500543 0.000000 0.000000 0.000000 -27.831820 -36.619786 -23.264958 34.492995 -10.670226 -2.270722 -11.839135 -5.351186 11.230320 -5.415908 2.348675 2.459472 0.000000 -0.000000 0.000000 
